<svg width="1001" height="211" viewBox="0 0 1001 211" fill="none" xmlns="http://www.w3.org/2000/svg">
<path d="M901.802 210.754C883.528 210.754 866.842 206.053 851.746 196.651C836.782 187.248 824.798 174.668 815.793 158.91C806.921 143.019 802.484 125.473 802.484 106.271C802.484 91.7047 805.067 78.1312 810.231 65.5509C815.396 52.8383 822.48 41.7147 831.485 32.1801C840.622 22.5132 851.216 14.965 863.267 9.53566C875.317 4.10629 888.163 1.3916 901.802 1.3916C916.236 1.3916 929.545 4.23872 941.728 9.93293C954.043 15.4947 964.637 23.374 973.51 33.5706C982.382 43.7672 989.202 55.8178 993.969 69.7223C998.737 83.4944 1000.92 98.5907 1000.52 115.011H824.93C826.387 129.181 830.624 141.893 837.643 153.149C844.794 164.273 853.931 173.079 865.055 179.568C876.178 185.924 888.427 189.169 901.802 189.301C916.501 189.301 929.744 185.461 941.529 177.78C953.315 169.967 962.783 159.307 969.934 145.8L991.586 150.766C983.64 168.378 971.656 182.812 955.633 194.068C939.609 205.192 921.666 210.754 901.802 210.754ZM824.334 96.7368H978.873C978.078 83.0971 974.106 70.5831 966.955 59.1946C959.936 47.6737 950.733 38.4703 939.344 31.5842C927.956 24.6982 915.442 21.2552 901.802 21.2552C888.163 21.2552 875.715 24.632 864.459 31.3856C853.203 38.1392 843.999 47.2765 836.848 58.7973C829.83 70.1858 825.659 82.8323 824.334 96.7368Z" fill="white"/>
<path d="M605.494 128.717V6.95361H626.947V125.341C626.947 137.126 629.794 147.853 635.488 157.52C641.315 167.186 649.062 174.867 658.728 180.561C668.395 186.255 679.056 189.103 690.709 189.103C702.495 189.103 713.155 186.255 722.689 180.561C732.356 174.867 740.037 167.186 745.731 157.52C751.558 147.853 754.471 137.126 754.471 125.341V6.95361H775.924V205.589H754.471V174.801C747.32 185.66 737.852 194.4 726.066 201.021C714.413 207.51 701.568 210.754 687.531 210.754C672.434 210.754 658.662 207.112 646.214 199.829C633.767 192.413 623.835 182.481 616.419 170.034C609.136 157.586 605.494 143.814 605.494 128.717Z" fill="white"/>
<path d="M505.686 209.364C494.695 209.231 483.902 207.311 473.308 203.603C462.847 199.763 453.71 194.665 445.897 188.308C438.084 181.952 432.654 174.735 429.608 166.657L448.479 158.513C450.73 164.472 455.034 169.835 461.39 174.602C467.879 179.37 475.162 183.144 483.24 185.925C491.45 188.573 499.462 189.897 507.275 189.897C516.147 189.897 524.49 188.374 532.303 185.329C540.116 182.283 546.472 177.979 551.372 172.417C556.272 166.856 558.722 160.301 558.722 152.752C558.722 144.807 556.139 138.583 550.975 134.081C545.81 129.446 539.189 125.738 531.111 122.957C523.166 120.044 514.956 117.329 506.48 114.813C491.914 110.575 479.267 106.272 468.541 101.902C457.947 97.3993 449.737 91.7051 443.91 84.819C438.084 77.933 435.17 68.8619 435.17 57.6059C435.17 45.9526 438.547 35.8222 445.301 27.2147C452.054 18.6071 460.927 11.9859 471.918 7.35108C482.909 2.58382 494.695 0.200195 507.275 0.200195C523.563 0.200195 538.328 3.77564 551.571 10.9265C564.946 18.0774 574.348 27.4795 579.777 39.1328L562.297 49.4619C559.649 43.3704 555.477 38.1396 549.783 33.7696C544.089 29.3996 537.6 26.0228 530.317 23.6392C523.033 21.2556 515.684 19.9976 508.268 19.8651C498.998 19.7327 490.325 21.1894 482.247 24.2351C474.301 27.1484 467.879 31.4522 462.979 37.1464C458.08 42.7082 455.63 49.4619 455.63 57.4073C455.63 65.3527 457.881 71.4442 462.383 75.6818C466.886 79.9193 473.176 83.3624 481.254 86.0108C489.332 88.5269 498.667 91.5064 509.261 94.9494C521.577 98.7897 533.031 103.094 543.625 107.861C554.352 112.496 562.959 118.322 569.448 125.341C576.069 132.359 579.314 141.43 579.181 152.554C579.181 164.207 575.672 174.338 568.653 182.945C561.767 191.553 552.696 198.174 541.44 202.809C530.317 207.444 518.399 209.628 505.686 209.364Z" fill="white"/>
<path d="M403.668 83.4282V205.589H382.215V86.805C382.215 75.0193 379.368 64.2929 373.674 54.626C367.98 44.959 360.299 37.2785 350.632 31.5842C340.965 25.89 330.239 23.0429 318.453 23.0429C306.8 23.0429 296.14 25.89 286.473 31.5842C276.806 37.2785 269.059 44.959 263.232 54.626C257.538 64.2929 254.691 75.0193 254.691 86.805V205.589H233.238V6.95341H254.691V37.3447C261.842 26.3535 271.31 17.6135 283.096 11.1248C294.882 4.63599 307.727 1.3916 321.631 1.3916C336.86 1.3916 350.632 5.09947 362.947 12.5152C375.395 19.7985 385.261 29.6641 392.544 42.1119C399.96 54.5598 403.668 68.3319 403.668 83.4282Z" fill="white"/>
<path d="M99.8882 210.754C81.6137 210.754 64.9283 206.053 49.832 196.651C34.8681 187.248 22.8838 174.668 13.8789 158.91C5.00654 143.019 0.570312 125.473 0.570312 106.271C0.570312 91.7047 3.15256 78.1312 8.3171 65.5509C13.4816 52.8383 20.5663 41.7147 29.5711 32.1801C38.7084 22.5132 49.3023 14.965 61.3529 9.53566C73.4034 4.10629 86.2485 1.3916 99.8882 1.3916C114.322 1.3916 127.631 4.23872 139.814 9.93293C152.129 15.4947 162.723 23.374 171.596 33.5706C180.468 43.7672 187.288 55.8178 192.055 69.7223C196.822 83.4944 199.007 98.5907 198.61 115.011H23.0161C24.4728 129.181 28.7104 141.893 35.7289 153.149C42.8798 164.273 52.017 173.079 63.1406 179.568C74.2642 185.924 86.5134 189.169 99.8882 189.301C114.587 189.301 127.83 185.461 139.615 177.78C151.401 169.967 160.869 159.307 168.02 145.8L189.672 150.766C181.726 168.378 169.742 182.812 153.719 194.068C137.695 205.192 119.752 210.754 99.8882 210.754ZM22.4202 96.7368H176.959C176.164 83.0971 172.192 70.5831 165.041 59.1946C158.022 47.6737 148.819 38.4703 137.43 31.5842C126.042 24.6982 113.528 21.2552 99.8882 21.2552C86.2485 21.2552 73.8007 24.632 62.5447 31.3856C51.2887 38.1392 42.0852 47.2765 34.9343 58.7973C27.9158 70.1858 23.7445 82.8323 22.4202 96.7368Z" fill="white"/>
</svg>
